<svg width="63" height="65" viewBox="0 0 63 65" fill="none" xmlns="http://www.w3.org/2000/svg">
<path fill-rule="evenodd" clip-rule="evenodd" d="M14.0329 5.67032C14.0148 5.68454 13.999 5.69958 13.9834 5.71451C13.9716 5.72576 13.9599 5.73696 13.9472 5.74769C14.126 5.55551 14.3831 5.34836 14.552 5.23605C19.4835 1.96905 25.1814 0.221985 31.5037 0.221985C37.4171 0.221985 42.9558 1.88668 47.684 4.78181C48.0269 4.98896 48.9622 5.64286 49.4446 6.23686V6.23936C44.8829 1.11299 31.4743 12.112 31.4743 12.112C26.8367 8.46811 22.5712 5.98479 19.3954 5.10127C16.7411 4.36002 14.9046 4.97898 14.0329 5.67032ZM54.4171 10.3083L54.4171 10.3083L54.417 10.3082C54.3371 10.2241 54.2568 10.1395 54.1801 10.0505C53.0269 8.76012 51.6091 8.44815 50.331 8.53301C49.1679 8.90488 43.7932 10.8791 37.1697 17.2533C37.1697 17.2533 44.6257 24.6434 49.1924 32.1982C53.7519 39.7493 56.4792 45.6847 54.807 53.9196C54.7598 53.6447 54.007 49.4923 49.9074 43.619C48.9108 42.1964 45.2697 37.7563 43.23 35.4253C41.2075 33.1117 38.1982 29.7972 34.2241 25.769C33.3548 24.888 32.4366 23.9695 31.4718 23.0186C31.4718 23.0186 30.0198 24.4986 28.1295 26.4454V26.4429C25.7103 28.9337 22.5736 32.1832 20.8327 34.08C17.7328 37.4519 8.85169 48.0415 8.35217 53.9791C8.35217 53.9791 6.37615 49.2695 10.7126 38.4078C13.5457 31.3072 22.106 20.6451 25.6809 17.171C25.6809 17.171 22.4145 13.5071 18.3155 10.9764L18.291 10.9689C18.291 10.9689 18.2445 10.9315 18.1711 10.884C16.1999 9.68606 14.0476 8.76261 11.9761 8.64032C9.86051 8.79256 8.52113 10.3699 8.52113 10.3699C3.2346 16.1152 0 23.8373 0 32.333C0 50.0656 14.1039 64.444 31.5037 64.444C40.7374 64.444 49.0454 60.3858 54.8094 53.9341C54.8094 53.934 54.8092 53.9329 54.8089 53.9308C54.8087 53.9298 54.8085 53.9287 54.8083 53.9274C59.8967 48.225 63 40.6494 63 32.3305C63 23.9096 59.8193 16.245 54.6111 10.5172C54.5482 10.4463 54.4828 10.3774 54.4171 10.3083ZM54.8083 53.9274C54.8079 53.9253 54.8075 53.9227 54.807 53.9196C54.8062 53.9236 54.8054 53.9276 54.8045 53.9316C54.8058 53.9302 54.807 53.9288 54.8083 53.9274Z" fill="white"/>
</svg>
